<svg xmlns="http://www.w3.org/2000/svg" xmlns:xlink="http://www.w3.org/1999/xlink" version="1.1" width="16" height="16" viewBox="0 0 16 16">
  <symbol id="icon-google" viewBox="0 0 512 512"><path fill="var(--fill, var(--text-color), black)" d="M473.16 221.48l-2.26-9.59H262.46v88.22H387c-12.93 61.4-72.93 93.72-121.94 93.72-35.66 0-73.25-15-98.13-39.11a140.08 140.08 0 01-41.8-98.88c0-37.16 16.7-74.33 41-98.78s61-38.13 97.49-38.13c41.79 0 71.74 22.19 82.94 32.31l62.69-62.36C390.86 72.72 340.34 32 261.6 32c-60.75 0-119 23.27-161.58 65.71C58 139.5 36.25 199.93 36.25 256s20.58 113.48 61.3 155.6c43.51 44.92 105.13 68.4 168.58 68.4 57.73 0 112.45-22.62 151.45-63.66 38.34-40.4 58.17-96.3 58.17-154.9 0-24.67-2.48-39.32-2.59-39.96z"></path></symbol>
  <symbol id="icon-github" viewBox="0 0 512 512"><path fill="var(--fill, var(--text-color), black)" d="M256 32C132.3 32 32 134.9 32 261.7c0 101.5 64.2 187.5 153.2 217.9a17.56 17.56 0 003.8.4c8.3 0 11.5-6.1 11.5-11.4 0-5.5-.2-19.9-.3-39.1a102.4 102.4 0 01-22.6 2.7c-43.1 0-52.9-33.5-52.9-33.5-10.2-26.5-24.9-33.6-24.9-33.6-19.5-13.7-.1-14.1 1.4-14.1h.1c22.5 2 34.3 23.8 34.3 23.8 11.2 19.6 26.2 25.1 39.6 25.1a63 63 0 0025.6-6c2-14.8 7.8-24.9 14.2-30.7-49.7-5.8-102-25.5-102-113.5 0-25.1 8.7-45.6 23-61.6-2.3-5.8-10-29.2 2.2-60.8a18.64 18.64 0 015-.5c8.1 0 26.4 3.1 56.6 24.1a208.21 208.21 0 01112.2 0c30.2-21 48.5-24.1 56.6-24.1a18.64 18.64 0 015 .5c12.2 31.6 4.5 55 2.2 60.8 14.3 16.1 23 36.6 23 61.6 0 88.2-52.4 107.6-102.3 113.3 8 7.1 15.2 21.1 15.2 42.5 0 30.7-.3 55.5-.3 63 0 5.4 3.1 11.5 11.4 11.5a19.35 19.35 0 004-.4C415.9 449.2 480 363.1 480 261.7 480 134.9 379.7 32 256 32z"></path></symbol>
  <symbol id="icon-plus" viewBox="0 0 16 16" fill="none"><path fill-rule="evenodd" clip-rule="evenodd" d="M8.5 3.75a.75.75 0 00-1.5 0V7H3.75a.75.75 0 000 1.5H7v3.25a.75.75 0 001.5 0V8.5h3.25a.75.75 0 000-1.5H8.5V3.75z" fill="var(--fill)"/></symbol>
  <symbol xmlns="http://www.w3.org/2000/svg" id="icon-close" viewBox="0 0 16 16" fill="none"><path fill-rule="evenodd" clip-rule="evenodd" d="M3.38128 3.38128C3.72299 3.03957 4.27701 3.03957 4.61872 3.38128L8 6.76256L11.3813 3.38128C11.723 3.03957 12.277 3.03957 12.6187 3.38128C12.9604 3.72299 12.9604 4.27701 12.6187 4.61872L9.23744 8L12.6187 11.3813C12.9604 11.723 12.9604 12.277 12.6187 12.6187C12.277 12.9604 11.723 12.9604 11.3813 12.6187L8 9.23744L4.61872 12.6187C4.27701 12.9604 3.72299 12.9604 3.38128 12.6187C3.03957 12.277 3.03957 11.723 3.38128 11.3813L6.76256 8L3.38128 4.61872C3.03957 4.27701 3.03957 3.72299 3.38128 3.38128Z" fill="var(--fill)"/></symbol>
  <symbol xmlns="http://www.w3.org/2000/svg" id="icon-docs" viewBox="0 0 16 16" fill="none"><path fill-rule="evenodd" clip-rule="evenodd" d="M8.625 12.062c1.322-.792 2.544-1.095 3.443-1.197a.267.267 0 00.157-.079V3.19c-1.095.102-2.406.481-3.6 2.038v6.835zm4.675.288h-2.594a6.995 6.995 0 011.492-.342c.614-.07 1.177-.567 1.177-1.185V5.155a.55.55 0 01.475.545v6.1a.55.55 0 01-.55.55zm.075-8.348V2.996c0-.552-.448-1.008-1-.973-1.24.08-2.801.431-4.22 1.977h-.31c-1.419-1.546-2.98-1.897-4.22-1.977-.552-.035-1 .421-1 .973v1.006A1.7 1.7 0 001 5.7v6.1a1.7 1.7 0 001.7 1.7h10.6a1.7 1.7 0 001.7-1.7V5.7a1.7 1.7 0 00-1.625-1.698zm-6 1.225C6.181 3.67 4.87 3.291 3.775 3.19v7.597a.265.265 0 00.157.078c.898.103 2.12.406 3.443 1.198V5.227zm-4.75 5.596V5.155a.55.55 0 00-.475.545v6.1c0 .304.246.55.55.55h2.594a6.997 6.997 0 00-1.492-.342c-.614-.07-1.177-.567-1.177-1.185z" fill="var(--fill)"/></symbol>
  <symbol xmlns="http://www.w3.org/2000/svg" id="icon-android" viewBox="0 0 16 16" fill="none"><g clip-path="url(#id_2)" fill="var(--fill)"><path d="M3.641 11.64c0 .685.561 1.246 1.246 1.246h.415v2.076a1.038 1.038 0 002.077 0v-2.076h1.245v2.076a1.038 1.038 0 002.077 0v-2.076h.415a1.25 1.25 0 001.245-1.246V5.411h-8.72v6.229zM13.815 5.204c-.574 0-1.038.465-1.038 1.038v4.152a1.038 1.038 0 102.076 0V6.242c0-.573-.465-1.038-1.038-1.038zM2.188 5.204c-.573 0-1.038.465-1.038 1.038v4.152a1.038 1.038 0 102.076 0V6.242c0-.573-.464-1.038-1.038-1.038zM10.361 1.333l.56-1.026a.208.208 0 00-.364-.199l-.555 1.017a4.335 4.335 0 00-4 0L5.445.108a.207.207 0 10-.365.2l.56 1.025a4.353 4.353 0 00-2 3.663h8.72a4.354 4.354 0 00-2-3.663zm-4.228 2.21a.415.415 0 110-.831.415.415 0 010 .83zm3.737 0a.415.415 0 110-.831.415.415 0 010 .83z"/></g><defs><clipPath id="id_2"><path fill="#fff" d="M0 0h16v16H0z"/></clipPath></defs></symbol>
  <symbol xmlns="http://www.w3.org/2000/svg" id="icon-desktop" viewBox="0 0 16 16" fill="none"><path fill-rule="evenodd" clip-rule="evenodd" d="M7.25 12.5H5.5C5.08579 12.5 4.75 12.8358 4.75 13.25C4.75 13.6642 5.08579 14 5.5 14H10.5C10.9142 14 11.25 13.6642 11.25 13.25C11.25 12.8358 10.9142 12.5 10.5 12.5H8.75V11H12.5C13.6046 11 14.5 10.1046 14.5 9V4C14.5 2.89543 13.6046 2 12.5 2H3.5C2.39543 2 1.5 2.89543 1.5 4V9C1.5 10.1046 2.39543 11 3.5 11H7.25V12.5ZM12.5 9.5C12.7761 9.5 13 9.27614 13 9V4C13 3.72386 12.7761 3.5 12.5 3.5H3.5C3.22386 3.5 3 3.72386 3 4V9C3 9.27614 3.22386 9.5 3.5 9.5H12.5Z" fill="var(--fill)"/></symbol>
  <symbol xmlns="http://www.w3.org/2000/svg" id="icon-desktop" viewBox="0 0 16 16" fill="none"><path fill-rule="evenodd" clip-rule="evenodd" d="M7.25 12.5H5.5C5.08579 12.5 4.75 12.8358 4.75 13.25C4.75 13.6642 5.08579 14 5.5 14H10.5C10.9142 14 11.25 13.6642 11.25 13.25C11.25 12.8358 10.9142 12.5 10.5 12.5H8.75V11H12.5C13.6046 11 14.5 10.1046 14.5 9V4C14.5 2.89543 13.6046 2 12.5 2H3.5C2.39543 2 1.5 2.89543 1.5 4V9C1.5 10.1046 2.39543 11 3.5 11H7.25V12.5ZM12.5 9.5C12.7761 9.5 13 9.27614 13 9V4C13 3.72386 12.7761 3.5 12.5 3.5H3.5C3.22386 3.5 3 3.72386 3 4V9C3 9.27614 3.22386 9.5 3.5 9.5H12.5Z" fill="var(--fill)"/></symbol>
  <symbol xmlns="http://www.w3.org/2000/svg" id="icon-attributes" viewBox="0 0 16 16" fill="none"><path fill-rule="evenodd" clip-rule="evenodd" d="M12 13.5H4A1.5 1.5 0 012.5 12V4A1.5 1.5 0 014 2.5h8A1.5 1.5 0 0113.5 4v8a1.5 1.5 0 01-1.5 1.5zM4 15h8a3 3 0 003-3V4a3 3 0 00-3-3H4a3 3 0 00-3 3v8a3 3 0 003 3zm.75-10.5a.25.25 0 100 .5.25.25 0 000-.5zm-1.25.25a1.25 1.25 0 112.5 0 1.25 1.25 0 01-2.5 0zm3.5 0A.75.75 0 017.75 4h3.5a.75.75 0 010 1.5h-3.5A.75.75 0 017 4.75zM7.75 7a.75.75 0 100 1.5h3.5a.75.75 0 000-1.5h-3.5zm-3 .5a.25.25 0 100 .5.25.25 0 000-.5zm-1.25.25a1.25 1.25 0 112.5 0 1.25 1.25 0 01-2.5 0zM7.75 10a.75.75 0 000 1.5h3.5a.75.75 0 000-1.5h-3.5zm-3 .5a.25.25 0 100 .5.25.25 0 000-.5zm-1.25.25a1.25 1.25 0 112.5 0 1.25 1.25 0 01-2.5 0z" fill="var(--fill)"/></symbol>
  <symbol xmlns="http://www.w3.org/2000/svg" id="icon-browse" viewBox="0 0 16 16" fill="none"><path fill-rule="evenodd" clip-rule="evenodd" d="M2 4C2 3.58579 2.28782 3.25 2.64286 3.25H13.3571C13.7122 3.25 14 3.58579 14 4C14 4.41421 13.7122 4.75 13.3571 4.75H2.64286C2.28782 4.75 2 4.41421 2 4ZM2 8C2 7.58579 2.28782 7.25 2.64286 7.25H13.3571C13.7122 7.25 14 7.58579 14 8C14 8.41421 13.7122 8.75 13.3571 8.75H2.64286C2.28782 8.75 2 8.41421 2 8ZM2 12C2 11.5858 2.28782 11.25 2.64286 11.25H13.3571C13.7122 11.25 14 11.5858 14 12C14 12.4142 13.7122 12.75 13.3571 12.75H2.64286C2.28782 12.75 2 12.4142 2 12Z" fill="var(--fill)"/></symbol>
  <symbol xmlns="http://www.w3.org/2000/svg" id="icon-bucket" viewBox="0 0 16 16" fill="none"><path d="M7.65671 8.25806C7.22914 8.25806 6.88252 7.91145 6.88252 7.48387L6.88252 0.774194C6.88252 0.346619 7.22914 0 7.65671 0C8.08429 0 8.43091 0.346619 8.43091 0.774194V7.48387C8.43091 7.91145 8.08429 8.25806 7.65671 8.25806Z" fill="var(--fill)"/><path d="M5.59225 2.3377L1.55937 6.37058C-0.0531155 7.98307 -0.0531158 10.5974 1.55937 12.2099L3.15784 13.8084C4.77033 15.4209 7.38469 15.4209 8.99717 13.8084L14.1066 8.69897C14.5097 8.29584 14.5097 7.64225 14.1066 7.23913L9.72129 2.85383V5.04358L12.6468 7.96905L7.9023 12.7135C6.89449 13.7213 5.26052 13.7213 4.25271 12.7135L2.65425 11.115C1.64644 10.1072 1.64644 8.47326 2.65425 7.46546L5.59225 4.52745V2.3377Z" fill="var(--fill)"/><path d="M14.1083 16C14.9635 16 15.6567 15.3068 15.6567 14.4516C15.6567 12.129 14.1083 11.3548 14.1083 11.3548C14.1083 11.3548 12.5599 12.129 12.5599 14.4516C12.5599 15.3068 13.2532 16 14.1083 16Z" fill="var(--fill)"/></symbol>
  <symbol xmlns="http://www.w3.org/2000/svg" id="icon-calendarStart" viewBox="0 0 16 16" fill="none"><path d="M11 .375c.345 0 .625.28.625.625v1.5a.625.625 0 1 1-1.25 0V1c0-.345.28-.625.625-.625Z" fill="var(--fill)"/><path fill-rule="evenodd" clip-rule="evenodd" d="M9.5 1.5h-3v1a1.5 1.5 0 1 1-3 0v-1h-1A2.5 2.5 0 0 0 0 4v8a2.5 2.5 0 0 0 2.5 2.5h11A2.5 2.5 0 0 0 16 12V4a2.5 2.5 0 0 0-2.5-2.5h-1v1a1.5 1.5 0 0 1-3 0v-1Zm4 3.75h-11c-.69 0-1.25.56-1.25 1.25V12c0 .69.56 1.25 1.25 1.25h11c.69 0 1.25-.56 1.25-1.25V6.5c0-.69-.56-1.25-1.25-1.25Z" fill="var(--fill)"/><path d="M5.625 1a.625.625 0 1 0-1.25 0v1.5a.625.625 0 1 0 1.25 0V1Z" fill="var(--fill)"/><circle cx="6.5" cy="7.75" r="1.25" fill="var(--fill)"/><circle cx="9.5" cy="7.75" r=".5" fill="var(--fill)"/><circle cx="9.5" cy="10.75" r=".5" fill="var(--fill)"/><circle cx="6.5" cy="10.75" r=".5" fill="var(--fill)"/><circle cx="3.5" cy="10.75" r=".5" fill="var(--fill)"/><circle cx="12.5" cy="7.75" r=".5" fill="var(--fill)"/></symbol>
  <symbol xmlns="http://www.w3.org/2000/svg" id="icon-clock" viewBox="0 0 16 16" fill="none"><path d="M8.625 4.5a.625.625 0 10-1.25 0V8c0 .345.28.625.625.625h3.5a.625.625 0 100-1.25H8.625V4.5z" fill="var(--fill)"/><path fill-rule="evenodd" clip-rule="evenodd" d="M15 8A7 7 0 111 8a7 7 0 0114 0zm-1.5 0a5.5 5.5 0 11-11 0 5.5 5.5 0 0111 0z" fill="var(--fill)"/></symbol>
  <symbol xmlns="http://www.w3.org/2000/svg" id="icon-command" viewBox="0 0 16 16" fill="none"><path fill-rule="evenodd" clip-rule="evenodd" d="M8.572 8.529a4.18 4.18 0 00.535-.422s.194-.153-.097-.46L5.94 4.304l1.144-2.742c.144-.392-.128-.738-.592-.466L1.1 4.177a.2.2 0 00-.048.31L4.357 8.1l-1.2 2.896c-.166.43.143.615.584.36L8.572 8.53zM6.5 12.625a.875.875 0 000 1.75H14a.875.875 0 000-1.75H6.5z" fill="var(--fill)"/></symbol>
  <symbol xmlns="http://www.w3.org/2000/svg" id="icon-conversations" viewBox="0 0 16 16" fill="none"><path fill-rule="evenodd" clip-rule="evenodd" d="M2 2h12a2 2 0 012 2v8a2 2 0 01-2 2H2a2 2 0 01-2-2V4a2 2 0 012-2zm4 10.5v-9h8a.5.5 0 01.5.5v8a.5.5 0 01-.5.5H6zm-1-9H2a.5.5 0 00-.5.5v8a.5.5 0 00.5.5h3v-9zm2.75 1a.75.75 0 000 1.5h3.5a.75.75 0 000-1.5h-3.5z" fill="var(--fill)"/></symbol>
  <symbol xmlns="http://www.w3.org/2000/svg" id="icon-creditCard" viewBox="0 0 16 16" fill="none"><path fill-rule="evenodd" clip-rule="evenodd" d="M2 3.5h12a.5.5 0 01.5.5v.5h-13V4a.5.5 0 01.5-.5zm-.5 3V12a.5.5 0 00.5.5h12a.5.5 0 00.5-.5V6.5h-13zM14 2H2a2 2 0 00-2 2v8a2 2 0 002 2h12a2 2 0 002-2V4a2 2 0 00-2-2zM3 8.5a.5.5 0 01.5-.5h3a.5.5 0 010 1h-3a.5.5 0 01-.5-.5zm.5 1.5a.5.5 0 000 1h5a.5.5 0 000-1h-5z" fill="var(--fill)"/></symbol>
  <symbol xmlns="http://www.w3.org/2000/svg" id="icon-pin" viewBox="0 0 16 16" fill="none"><g clip-path="url(#id_22)"><path fill-rule="evenodd" clip-rule="evenodd" d="M9.25176 2.68447C9.33321 2.60302 9.46526 2.60302 9.54671 2.68447L13.3108 6.4486C13.3923 6.53005 13.3923 6.6621 13.3108 6.74355C13.2645 6.78993 13.1989 6.81179 13.134 6.80256L12.8044 6.7557C12.2984 6.68375 11.7881 6.85406 11.4267 7.21545L10.0405 8.60165C9.7122 8.92992 9.47686 9.33936 9.35845 9.78825L8.88798 11.5717L4.42362 7.10733L6.20706 6.63686C6.65594 6.51845 7.06539 6.28311 7.39366 5.95485L8.77986 4.56865C9.14125 4.20726 9.31156 3.69689 9.23961 3.1909L9.19275 2.86131C9.18351 2.79636 9.20537 2.73086 9.25176 2.68447ZM10.4306 1.80059C9.86099 1.23098 8.93748 1.23098 8.36787 1.80059C8.04349 2.12498 7.89062 2.58308 7.9552 3.03727L8.00206 3.36686C8.01866 3.48361 7.97936 3.60138 7.89597 3.68476L6.50977 5.07096C6.33783 5.24291 6.12335 5.36618 5.88822 5.42821L3.8945 5.95415C3.05525 6.17554 2.77221 7.22368 3.38596 7.83743L5.1387 9.59017C5.07291 9.63617 5.01205 9.69181 4.95819 9.75699L2.55158 12.6698C2.37101 12.8883 2.3862 13.2083 2.58666 13.4088C2.78712 13.6092 3.10712 13.6244 3.32567 13.4439L6.23845 11.0372C6.30363 10.9834 6.35926 10.9225 6.40526 10.8567L8.15788 12.6093C8.77162 13.2231 9.81977 12.9401 10.0412 12.1008L10.5671 10.1071C10.6291 9.87196 10.7524 9.65748 10.9243 9.48553L12.3105 8.09934C12.3939 8.01595 12.5117 7.97665 12.6285 7.99325L12.958 8.04011C13.4122 8.10469 13.8703 7.95182 14.1947 7.62743C14.7643 7.05783 14.7643 6.13432 14.1947 5.56472L10.4306 1.80059Z" fill="var(--fill)"/></g><defs><clipPath id="id_22"><rect width="16" height="16" fill="white"/></clipPath></defs></symbol>
  <symbol xmlns="http://www.w3.org/2000/svg" id="icon-feed" viewBox="0 0 16 16" fill="none"><path fill-rule="evenodd" clip-rule="evenodd" d="M3.227 4.5c.549-.798 1.195-2.154.405-2.792-.79-.639-1.316.399-1.316.399S1 1.707 1 2.904 2.316 4.5 3.227 4.5zM6 2.75A.75.75 0 016.75 2h8.5a.75.75 0 010 1.5h-8.5A.75.75 0 016 2.75zM2.015 8.8c-.365-.532-.796-1.436-.27-1.862.527-.425.878.266.878.266s.877-.266.877.532S2.623 8.8 2.015 8.8zm-.513 5.036c.961.12 2.463.07 2.666-.925.204-.995-.96-.985-.96-.985s-.25-1.352-1.313-.802c-1.062.55-.812 1.902-.393 2.712zM6.75 7a.75.75 0 000 1.5h8.5a.75.75 0 000-1.5h-8.5zM6 12.75a.75.75 0 01.75-.75h8.5a.75.75 0 010 1.5h-8.5a.75.75 0 01-.75-.75z" fill="var(--fill)"/></symbol>
  <symbol xmlns="http://www.w3.org/2000/svg" id="icon-form" viewBox="0 0 16 16" fill="none"><path d="M13.5 12V8.469L15 7.006V12a3 3 0 01-3 3H4a3 3 0 01-3-3V4a3 3 0 013-3h8c.338 0 .662.056.965.159L11.515 2.5H4A1.5 1.5 0 002.5 4v8A1.5 1.5 0 004 13.5h8a1.5 1.5 0 001.5-1.5z" fill="var(--fill)"/><path d="M4 4.75A.75.75 0 014.75 4h3.5a.75.75 0 010 1.5h-3.5A.75.75 0 014 4.75zM4.75 7a.75.75 0 000 1.5h.5a.75.75 0 000-1.5h-.5z" fill="var(--fill)"/><path fill-rule="evenodd" clip-rule="evenodd" d="M13.756 3.216a.736.736 0 00-1.041 0L8.162 7.768a.073.073 0 00-.016.012L5.76 10.162a.368.368 0 00-.108.26v1.192c0 .406.33.736.736.736h1.19a.368.368 0 00.262-.108l2.274-2.286 4.671-4.67a.736.736 0 000-1.042l-1.028-1.028zM8.08 9.095l.824.824-1.54 1.547h-.83v-.83L8.08 9.095zm4.954-5.155a.368.368 0 01.52 0l.517.516a.368.368 0 010 .52l-.075.084a.368.368 0 01-.52 0l-.517-.516a.368.368 0 010-.521l.075-.083z" fill="var(--fill)"/></symbol>
  <symbol xmlns="http://www.w3.org/2000/svg" id="icon-gift" viewBox="0 0 16 16" fill="none"><path fill-rule="evenodd" clip-rule="evenodd" d="M4.97981 3.85197C5.19875 4.15113 5.76969 4.5248 6.97828 4.6265C6.85568 3.74069 6.48987 3.19565 6.13627 2.92685C5.6998 2.59506 5.31295 2.66469 5.09819 2.87944C4.79497 3.18266 4.7599 3.55147 4.97981 3.85197ZM4.21431 1.99556C4.9683 1.24157 6.07642 1.3112 6.89273 1.93173C7.37478 2.29817 7.76668 2.85059 8.00769 3.56149C8.24871 2.85059 8.6406 2.29817 9.12265 1.93173C9.93896 1.3112 11.0471 1.24157 11.8011 1.99556C12.4666 2.66109 12.6866 3.71257 12.0443 4.59018C11.9884 4.66657 11.9271 4.74003 11.8604 4.81046C12.793 4.98017 13.5 5.79655 13.5 6.77808V12.2781C13.5 13.3826 12.6046 14.2781 11.5 14.2781L8.5 14.2781H7.5L4.5 14.2781C3.39543 14.2781 2.5 13.3826 2.5 12.2781V6.77808C2.5 5.79194 3.2137 4.9725 4.15276 4.80812C4.08693 4.7384 4.02636 4.66572 3.97107 4.59018C3.32882 3.71257 3.54878 2.66109 4.21431 1.99556ZM8.5 13.0281H11.5C11.9142 13.0281 12.25 12.6923 12.25 12.2781V9.77808H8.5V13.0281ZM12.25 8.77808V6.77808C12.25 6.36386 11.9142 6.02808 11.5 6.02808H8.5V8.77808H12.25ZM7.5 6.02808H4.5C4.08579 6.02808 3.75 6.36386 3.75 6.77808V8.77808H7.5V6.02808ZM3.75 9.77808H7.5V13.0281H4.5C4.08579 13.0281 3.75 12.6923 3.75 12.2781V9.77808ZM9.0371 4.6265C10.2457 4.5248 10.8166 4.15113 11.0356 3.85197C11.2555 3.55147 11.2204 3.18266 10.9172 2.87944C10.7024 2.66469 10.3156 2.59506 9.87911 2.92685C9.52551 3.19565 9.1597 3.74069 9.0371 4.6265Z" fill="var(--fill)"/></symbol>
  <symbol xmlns="http://www.w3.org/2000/svg" id="icon-heart" viewBox="0 0 16 16" fill="none"><path d="M8 13.417L2.91 8.326a3.012 3.012 0 01-.812-1.416 3.259 3.259 0 01.005-1.605c.135-.535.404-1 .807-1.396a3.04 3.04 0 011.411-.807 3.162 3.162 0 011.59 0 3.096 3.096 0 011.416.807l.674.653.673-.653a3.13 3.13 0 013.001-.807 3.039 3.039 0 011.416.807c.403.396.672.861.808 1.396a3.222 3.222 0 010 1.605 2.976 2.976 0 01-.808 1.416l-5.09 5.09z" fill="var(--fill)"/></symbol>
  <symbol xmlns="http://www.w3.org/2000/svg" id="icon-newFolder" viewBox="0 0 16 16" fill="none"><path fill-rule="evenodd" clip-rule="evenodd" d="M4 14a3 3 0 01-3-3V3.5A2.5 2.5 0 013.5 1H7a2.5 2.5 0 012.292 1.5H12.5A2.5 2.5 0 0114.792 4H15v7a3 3 0 01-3 3H4zM2.5 5.6A1.6 1.6 0 014.1 4h7.8a1.6 1.6 0 011.6 1.6v5.3a1.6 1.6 0 01-1.6 1.6H4.1a1.6 1.6 0 01-1.6-1.6V5.6zm6.5.15a.75.75 0 00-1.5 0V7.5H5.75a.75.75 0 000 1.5H7.5v1.75a.75.75 0 101.5 0V9h1.75a.75.75 0 000-1.5H9V5.75z" fill="var(--fill)"/></symbol>
  <symbol xmlns="http://www.w3.org/2000/svg" id="icon-plan-business" viewBox="0 0 40 41" fill="none"><path d="M19.9996 37.999C17.9996 23.6657 2.99963 20.999 2.99963 20.999" stroke="#9761F6" stroke-opacity="0.4" stroke-width="6" stroke-linecap="round" stroke-linejoin="round"/><path fill-rule="evenodd" clip-rule="evenodd" d="M19.5435 1.03433C21.176 0.783175 22.7034 1.89873 22.9624 3.52806L22.9624 3.52808L22.9627 3.52946C22.9639 3.53672 22.9672 3.5556 22.9729 3.58543C22.9843 3.64513 23.0051 3.74842 23.0378 3.89013C23.1035 4.17396 23.2164 4.60913 23.3961 5.15494C23.7567 6.25016 24.3784 7.76682 25.4091 9.39429C27.4373 12.5967 31.0871 16.3033 37.7192 18.0864C37.8636 18.1221 38.0043 18.1684 38.1403 18.2244C38.6135 18.4182 39.0157 18.7241 39.3238 19.1021C39.576 19.4104 39.769 19.7714 39.8831 20.1695C39.9781 20.4984 40.0176 20.8463 39.9936 21.1996C39.968 21.5896 39.8667 21.9625 39.7029 22.3018C39.3197 23.0953 38.5946 23.7047 37.6969 23.9179C37.5716 23.948 37.4438 23.97 37.3144 23.9837C37.3009 23.9855 37.2826 23.988 37.26 23.9913C37.1839 24.0023 37.0583 24.0218 36.8896 24.0526C36.5515 24.1142 36.0447 24.2203 35.4212 24.3921C34.1663 24.7376 32.4834 25.3365 30.7613 26.341C27.3863 28.3098 23.83 31.8289 22.9745 38.3877C22.7602 40.0307 21.2546 41.1888 19.6117 40.9745C18.2211 40.7931 17.1777 39.6866 17.0201 38.3546L17.0285 38.4142C17.0583 38.6275 17.1098 38.8325 17.1805 39.0272C17.3327 39.4436 17.5753 39.8203 17.8876 40.1303C18.2006 40.4401 18.5797 40.6795 18.9978 40.828C19.1929 40.8969 19.3982 40.9465 19.6117 40.9744C19.7466 40.992 19.8806 41.0003 20.0131 40.9999C20.1456 40.9991 20.2795 40.9896 20.4143 40.9708C20.6277 40.941 20.8328 40.8895 21.0275 40.8187C21.444 40.6665 21.8208 40.4237 22.1308 40.1113C22.4402 39.7986 22.6794 39.4198 22.8279 39.0022C22.8969 38.8068 22.9466 38.6013 22.9745 38.3876L22.9825 38.3268C23.0088 38.0852 23.006 37.8366 22.9709 37.585C22.4924 34.1553 21.363 31.3002 19.8837 28.9344C22.005 25.2756 24.9303 22.7962 27.7381 21.1584C28.0229 20.9922 28.3064 20.8347 28.5876 20.6854C24.7153 18.3302 22.0887 15.3653 20.3402 12.6046C18.996 10.4821 18.1802 8.49873 17.6971 7.03145C17.4549 6.29601 17.2944 5.68431 17.192 5.24158C17.1408 5.02 17.104 4.84009 17.0787 4.70741C17.0661 4.64105 17.0563 4.58643 17.0491 4.54426L17.0401 4.49038L17.0369 4.47058L17.0356 4.46249L17.0351 4.4589C17.0348 4.45723 17.0346 4.45562 19.9997 3.99945L17.0346 4.45562C16.7826 2.81803 17.9059 1.28627 19.5435 1.03433Z" fill="var(--fill)" fill-opacity="0.2"/><path d="M19.9996 3.99902C19.9996 3.99902 16.6663 18.6657 2.99963 20.999" stroke="#9761F6" stroke-width="6" stroke-linecap="round" stroke-linejoin="round"/></symbol>
  <symbol xmlns="http://www.w3.org/2000/svg" id="icon-plan-enterprise" viewBox="0 0 40 40" fill="none"><path d="M4.28558 2.85693H19.9999" stroke="#B3B3B3" stroke-width="5" stroke-linecap="round" stroke-linejoin="round"/><path d="M4.28558 2.85693V16.9386C4.28557 21.7985 6.15734 25.7104 8.60888 28.7498" stroke="#B3B3B3" stroke-width="5" stroke-linecap="round" stroke-linejoin="round"/><path d="M35.7141 16.939C35.7141 31.0206 19.9999 37.143 19.9999 37.143C19.9999 37.143 13.2606 34.5174 8.60886 28.7502" stroke="#E0E0E0" stroke-width="5" stroke-linecap="round" stroke-linejoin="round"/><path d="M35.7143 16.9386V2.85693H20" stroke="#808080" stroke-width="5" stroke-linecap="round" stroke-linejoin="round"/><path d="M13.7143 18.1632L18.5712 23.0612L26.9143 14.4897" stroke="#808080" stroke-width="5" stroke-linecap="round" stroke-linejoin="round"/></symbol>
  <symbol xmlns="http://www.w3.org/2000/svg" id="icon-plan-free" viewBox="0 0 40 40" fill="none"><path fill-rule="evenodd" clip-rule="evenodd" d="M8.25747 14.75L0.87868 22.1288C-0.292893 23.3004 -0.292893 25.1999 0.87868 26.3714C2.05025 27.543 3.94975 27.543 5.12132 26.3714L12.6213 18.8714C12.6577 18.8351 12.6929 18.798 12.7271 18.7602C12.6977 18.7877 12.6688 18.816 12.6403 18.8451C11.4792 20.0271 9.57981 20.0441 8.39778 18.8831C7.25156 17.7573 7.20083 15.9371 8.25747 14.75Z" fill="var(--fill)" fill-opacity="0.2"/><path d="M10.5 16.7427C13.6653 13.5202 19.0691 14.9791 20.25 19.375C21.4309 23.7709 26.8347 25.2298 30 22.0073" stroke="#18B6AA" stroke-opacity="0.5" stroke-width="6" stroke-linecap="round" stroke-linejoin="round"/><path d="M30 22L37 15" stroke="#18B6AA" stroke-width="6" stroke-linecap="round" stroke-linejoin="round"/></symbol>
  <symbol xmlns="http://www.w3.org/2000/svg" id="icon-private" viewBox="0 0 16 16" fill="none"><path fill-rule="evenodd" clip-rule="evenodd" d="M2.667 8a2 2 0 011.666-1.972V5a3.667 3.667 0 017.334 0v1.028A2 2 0 0113.333 8v4a2 2 0 01-2 2H4.667a2 2 0 01-2-2V8zm7.666-3v1H5.667V5a2.333 2.333 0 014.666 0zm-5 2.333C4.597 7.333 4 7.93 4 8.667v2.666c0 .737.597 1.334 1.333 1.334h5.334c.736 0 1.333-.597 1.333-1.334V8.667c0-.737-.597-1.334-1.333-1.334H5.333z" fill="var(--fill)"/></symbol>
  <symbol xmlns="http://www.w3.org/2000/svg" id="icon-sentry" viewBox="0 0 16 16" fill="none"><g clip-path="url(#id_23)"><path d="M9.28111 1.73867C9.15131 1.51407 8.9647 1.32758 8.74002 1.19792C8.51533 1.06826 8.26049 1 8.00107 1C7.74166 1 7.48682 1.06826 7.26214 1.19792C7.03745 1.32758 6.85084 1.51407 6.72104 1.73867L4.61363 5.389L5.15124 5.69759C6.62896 6.55225 7.87201 7.75958 8.7694 9.21176C9.66678 10.6639 10.1906 12.3157 10.294 14.0197H8.81447C8.71204 12.5741 8.25658 11.1758 7.488 9.94717C6.71943 8.71857 5.66121 7.69727 4.40612 6.97278L3.86852 6.66527L1.90519 10.0791L2.44279 10.3876C3.09433 10.7704 3.65032 11.2962 4.06869 11.9254C4.48706 12.5547 4.75687 13.2708 4.85771 14.0197H1.47833C1.4351 14.0204 1.39245 14.0096 1.35476 13.9884C1.31707 13.9672 1.28567 13.9364 1.2638 13.8991C1.24192 13.8618 1.23035 13.8194 1.23026 13.7762C1.23017 13.7329 1.24157 13.6904 1.26329 13.653L2.20517 12.022C1.88702 11.7537 1.52267 11.5457 1.12996 11.408L0.197759 13.0359C0.0681255 13.2606 -7.81644e-05 13.5155 6.72246e-08 13.775C7.82988e-05 14.0344 0.0684358 14.2893 0.198205 14.514C0.327974 14.7387 0.514584 14.9252 0.739288 15.0549C0.963992 15.1846 1.21888 15.2529 1.47833 15.253H6.1286V14.6369C6.12891 13.6627 5.89762 12.7023 5.45381 11.8351C5.01001 10.9679 4.3664 10.2186 3.57606 9.64897L4.3158 8.36733C5.32869 9.06845 6.15667 10.0045 6.7289 11.0954C7.30113 12.1863 7.60058 13.3996 7.60164 14.6315V15.2487H11.5423V14.6326C11.5405 12.7094 11.0594 10.817 10.1425 9.12654C9.22567 7.43603 7.90191 6.0007 6.29096 4.95032L7.78657 2.35584C7.80801 2.31878 7.83881 2.28801 7.8759 2.26662C7.91298 2.24523 7.95504 2.23397 7.99785 2.23397C8.04066 2.23397 8.08272 2.24523 8.1198 2.26662C8.15689 2.28801 8.18769 2.31878 8.20913 2.35584L14.7313 13.653C14.7531 13.6904 14.7645 13.7329 14.7644 13.7762C14.7643 13.8194 14.7527 13.8618 14.7308 13.8991C14.709 13.9364 14.6776 13.9672 14.6399 13.9884C14.6022 14.0096 14.5595 14.0204 14.5163 14.0197H12.9906C13.0099 14.4315 13.0121 14.8433 12.9906 15.254H14.5217C14.7811 15.254 15.036 15.1857 15.2607 15.056C15.4854 14.9263 15.672 14.7397 15.8018 14.5151C15.9316 14.2904 15.9999 14.0355 16 13.7761C16.0001 13.5166 15.9319 13.2617 15.8022 13.037L9.28111 1.73867Z" fill="var(--fill)"/></g><defs><clipPath id="id_23"><rect width="16" height="16" fill="white"/></clipPath></defs></symbol>
  <symbol xmlns="http://www.w3.org/2000/svg" id="icon-sparkle" viewBox="0 0 16 16" fill="none"><path fill-rule="evenodd" clip-rule="evenodd" d="M10.4.734c.016-.116.184-.116.2 0l.574 4.257a2 2 0 001.495 1.672l2.559.643c.202.05.202.337 0 .388l-2.559.643a2 2 0 00-1.495 1.672l-.575 4.257c-.015.116-.183.116-.198 0l-.575-4.257A2 2 0 008.33 8.337l-2.559-.643c-.202-.05-.202-.337 0-.388l2.559-.643a2 2 0 001.495-1.672L10.4.734zM3.9.808c.015-.117.185-.117.2 0l.204 1.664a2 2 0 001.452 1.684l.546.151c.196.054.196.332 0 .386l-.546.15a2 2 0 00-1.452 1.685l-.205 1.664c-.014.117-.184.117-.198 0l-.205-1.664a2 2 0 00-1.452-1.684l-.546-.151c-.196-.054-.196-.332 0-.386l.546-.15a2 2 0 001.452-1.685L3.901.808zm2.2 9c-.015-.117-.185-.117-.2 0l-.073.597a1.7 1.7 0 01-1.234 1.431c-.166.046-.166.282 0 .328a1.7 1.7 0 011.234 1.431l.074.597c.014.117.184.117.198 0l.074-.597a1.7 1.7 0 011.234-1.431c.166-.046.166-.282 0-.328a1.7 1.7 0 01-1.234-1.431l-.074-.597z" fill="var(--fill)"/></symbol>
  <symbol xmlns="http://www.w3.org/2000/svg" id="icon-star" viewBox="0 0 16 16" fill="none"><path d="M7.311 2.893c.229-.657 1.16-.657 1.388 0l1.033 2.973 3.147.064c.696.015.984.9.429 1.32L10.8 9.152l.911 3.012c.202.667-.55 1.214-1.123.816l-2.583-1.798-2.583 1.798c-.572.398-1.325-.149-1.123-.816l.911-3.012L2.702 7.25c-.555-.42-.267-1.305.429-1.32l3.147-.064L7.31 2.893z" fill="var(--fill)"/></symbol>
  <symbol xmlns="http://www.w3.org/2000/svg" id="icon-subscribe" viewBox="0 0 16 16" fill="none"><path fill-rule="evenodd" clip-rule="evenodd" d="M9.474 3.28a1.5 1.5 0 10-2.948 0A4.001 4.001 0 004 7v3.5h-.85a.75.75 0 000 1.5h9.5a.75.75 0 000-1.5H12V7a4.001 4.001 0 00-2.526-3.72zM5.5 10.5V7a2.5 2.5 0 015 0v3.5h-5zm.563 2.5a2 2 0 003.874 0H6.063z" fill="var(--fill)"/></symbol>
  <symbol xmlns="http://www.w3.org/2000/svg" id="icon-sync" viewBox="0 0 16 16" fill="none"><g clip-path="url(#id_33)"><path fill-rule="evenodd" clip-rule="evenodd" d="M13.4363 10.3469L14.998 7.5933C15.1494 7.32629 14.9561 6.99526 14.6491 6.99598L13.5668 6.9985C13.4201 6.14367 13.0729 5.30987 12.5152 4.56964C10.6459 2.08841 7.11902 1.5924 4.6378 3.46176C4.3621 3.66946 4.30699 4.06134 4.5147 4.33703C4.72241 4.61272 5.11428 4.66783 5.38997 4.46012C7.31981 3.00618 10.0629 3.39197 11.5169 5.32181C11.9052 5.83725 12.1623 6.4103 12.2938 7.00146L11.3731 7.0036C11.0594 7.00433 10.8686 7.34936 11.0347 7.61543L12.749 10.3614C12.9096 10.6186 13.2867 10.6107 13.4363 10.3469Z" fill="var(--fill)"/><path fill-rule="evenodd" clip-rule="evenodd" d="M2.67716 5.65304L1.11568 8.40679C0.964271 8.67381 1.15763 9.00483 1.46459 9.00409L2.54693 9.00149C2.69375 9.85642 3.04106 10.6902 3.59868 11.4303C5.46821 13.9114 8.99509 14.4071 11.4762 12.5376C11.7519 12.3299 11.8069 11.938 11.5992 11.6623C11.3915 11.3867 10.9996 11.3316 10.7239 11.5393C8.7942 12.9934 6.05107 12.6078 4.59699 10.678C4.20852 10.1625 3.95145 9.58949 3.81994 8.99844L4.74061 8.99624C5.05428 8.99549 5.24507 8.65045 5.07894 8.38439L3.3644 5.63849C3.20383 5.38133 2.8267 5.38931 2.67716 5.65304Z" fill="var(--fill)"/></g><defs><clipPath id="id_33"><rect width="16" height="16" fill="white"/></clipPath></defs></symbol>
  <symbol xmlns="http://www.w3.org/2000/svg" id="icon-tag" viewBox="0 0 16 16" fill="none"><path fill-rule="evenodd" clip-rule="evenodd" d="M2.5 5.5v5a.5.5 0 00.5.5h8.102a.5.5 0 00.374-.168l2.222-2.5a.5.5 0 000-.664l-2.222-2.5A.5.5 0 0011.102 5H3a.5.5 0 00-.5.5zm-1.5 5v-5a2 2 0 012-2h8.102a2 2 0 011.495.671l2.222 2.5a2 2 0 010 2.658l-2.222 2.5a2 2 0 01-1.495.671H3a2 2 0 01-2-2z" fill="var(--fill)"/></symbol>
  <symbol xmlns="http://www.w3.org/2000/svg" id="icon-user" viewBox="0 0 16 16" fill="none"><path fill-rule="evenodd" clip-rule="evenodd" d="M9.202 8.39a1.25 1.25 0 01.37-1.03 2.25 2.25 0 10-3.152-.008 1.25 1.25 0 01-.252 1.971c-.361.21-.874.557-1.283 1.012-.407.452-.635.923-.635 1.415 0 .414.336.75.75.75h6a.75.75 0 00.75-.75c0-.42-.214-.877-.645-1.358-.423-.472-.952-.847-1.32-1.075a1.25 1.25 0 01-.583-.926zm1.243-.135c.275.17.645.422 1.02.745.76.658 1.535 1.607 1.535 2.75a2 2 0 01-2 2H5a2 2 0 01-2-2c0-1.206.754-2.146 1.506-2.782.378-.32.755-.564 1.036-.727A3.487 3.487 0 014.5 5.75a3.5 3.5 0 115.945 2.505z" fill="var(--fill)"/></symbol>
  <symbol xmlns="http://www.w3.org/2000/svg" id="icon-windows" viewBox="0 0 16 16" fill="none"><path d="M0 2.26533L6.51855 1.37758L6.52139 7.66524L0.00595468 7.70234L0 2.26533ZM6.51544 8.3897L6.5205 14.6828L0.00505965 13.7871L0.00469433 8.34749L6.51544 8.3897ZM7.30564 1.26144L15.9487 0V7.58527L7.30564 7.65389V1.26144ZM15.9507 8.44888L15.9487 16L7.30562 14.7801L7.29351 8.43475L15.9507 8.44888Z" fill="var(--fill)"/></symbol>
  <symbol xmlns="http://www.w3.org/2000/svg" id="icon-copy" viewBox="0 0 16 16" fill="none"><path fill-rule="evenodd" clip-rule="evenodd" d="M11.139 1.391c.797.53 2.162 1.575 3.04 3.016.231.38.321.823.321 1.267V9.5a3 3 0 01-2.536 2.963A3 3 0 019 15H5a3 3 0 01-3-3V6.5a3 3 0 012.536-2.964A3 3 0 017.5 1h2.25c.492 0 .978.119 1.389.391zM4.5 4.822A1.75 1.75 0 003.25 6.5V12c0 .966.784 1.75 1.75 1.75h4a1.75 1.75 0 001.678-1.25H7.5a3 3 0 01-3-3V4.822zM7.5 11h4A1.5 1.5 0 0013 9.5V5.675c0-.064-.003-.122-.01-.174H11a1 1 0 01-1-1V2.522a1.347 1.347 0 00-.25-.022H7.5A1.5 1.5 0 006 4v5.5A1.5 1.5 0 007.5 11zM11 3.14c.46.362.97.822 1.408 1.36H11V3.14z" fill="var(--fill)"/></symbol>
  <symbol xmlns="http://www.w3.org/2000/svg" id="icon-settings" viewBox="0 0 16 16" fill="none"><path fill-rule="evenodd" clip-rule="evenodd" d="M1.857 6.595h.67c.182 0 .393-.164.462-.358.064-.18.14-.36.223-.533.09-.185.057-.449-.072-.577l-.477-.477a.858.858 0 010-1.212l.775-.774a.852.852 0 01.606-.251c.229 0 .444.089.606.25l.477.478a.489.489 0 00.34.122.544.544 0 00.237-.05c.173-.085.353-.16.533-.224.194-.069.359-.28.359-.462v-.67c0-.472.384-.857.857-.857h1.095c.473 0 .857.385.857.857v.67c0 .182.164.393.358.462.18.064.36.139.533.223.068.032.151.05.236.05a.49.49 0 00.342-.122l.476-.477a.852.852 0 01.606-.25c.23 0 .444.089.606.25l.775.775a.851.851 0 01.252.606c0 .229-.09.444-.251.606l-.477.477c-.129.128-.162.393-.072.577.083.174.158.353.222.533.07.194.28.358.462.358h.67c.473 0 .857.385.857.857v1.096a.858.858 0 01-.857.857h-.67c-.182 0-.393.164-.462.358a5.31 5.31 0 01-.223.533c-.089.184-.056.448.072.577l.478.477a.858.858 0 010 1.212l-.776.775a.851.851 0 01-.606.251.852.852 0 01-.606-.25l-.477-.478a.49.49 0 00-.342-.122.542.542 0 00-.235.05 5.288 5.288 0 01-.533.223c-.194.069-.358.28-.358.462v.67a.858.858 0 01-.857.857H7.452a.858.858 0 01-.857-.857v-.67c0-.182-.164-.393-.358-.462a5.323 5.323 0 01-.533-.223.55.55 0 00-.235-.05.49.49 0 00-.342.123l-.477.476a.851.851 0 01-.606.252.851.851 0 01-.607-.252l-.774-.775a.859.859 0 010-1.212l.477-.477c.128-.128.16-.392.071-.577a5.31 5.31 0 01-.222-.533c-.07-.194-.28-.358-.462-.358h-.67A.858.858 0 011 8.548V7.453c0-.473.385-.858.857-.858zM11.563 8a3.563 3.563 0 11-7.126 0 3.563 3.563 0 017.125 0z" fill="var(--fill)"/></symbol>
  <symbol xmlns="http://www.w3.org/2000/svg" id="icon-palmtree" viewBox="0 0 16 16" fill="none"><g clip-path="url(#id_21)"><path fill-rule="evenodd" clip-rule="evenodd" d="M8 3.06608C7.8676 2.84695 7.71664 2.6352 7.54693 2.43295C6.72674 1.45549 5.61217 0.870778 4.4417 0.699675C4.03384 0.640053 3.82187 1.10505 4.08682 1.4208L6.11535 3.83831C5.91098 3.77433 5.70018 3.72275 5.48365 3.68457C4.22705 3.463 2.9974 3.73151 1.99078 4.35281C1.64002 4.5693 1.77653 5.06176 2.18246 5.13334L5.78258 5.76813C5.46411 5.90299 5.15487 6.07313 4.86017 6.27948C3.81494 7.01136 3.13532 8.07072 2.86285 9.22184C2.76791 9.62294 3.21266 9.87463 3.5503 9.63821L7.58404 6.81376C7.61436 7.37487 7.64013 8.30531 7.58433 9.4959L9.05063 9.61069C9.06379 8.60579 9.03065 7.79434 8.99191 7.21704L12.4497 9.63821C12.7873 9.87463 13.2321 9.62294 13.1372 9.22184C12.8647 8.07072 12.1851 7.01136 11.1398 6.27948C10.8451 6.07313 10.5359 5.90299 10.2174 5.76813L13.8175 5.13334C14.2235 5.06176 14.36 4.5693 14.0092 4.35281C13.0026 3.73151 11.7729 3.463 10.5164 3.68457C10.2998 3.72275 10.089 3.77433 9.88465 3.83831L11.9132 1.4208C12.1781 1.10505 11.9662 0.640053 11.5583 0.699675C10.3878 0.870778 9.27326 1.45549 8.45307 2.43295C8.28336 2.6352 8.1324 2.84695 8 3.06608ZM9.03279 10.3616L7.54015 10.2447C7.50752 10.704 7.46261 11.1933 7.40194 11.7079L8.94022 12.0014C8.98586 11.4179 9.01536 10.8699 9.03279 10.3616ZM8.87414 12.7524L7.30514 12.453C7.22796 12.9964 7.13299 13.5633 7.01665 14.1486L8.67727 14.4068C8.75785 13.832 8.82261 13.2796 8.87414 12.7524ZM8.56625 15.1485L6.86116 14.8834C6.71334 15.5417 6.53796 16.2196 6.33027 16.9104C6.14573 17.5241 6.39787 18.1587 7.03877 18.1587C7.46935 18.1587 8.04175 17.8624 8.13361 17.4417C8.30694 16.6479 8.44952 15.8819 8.56625 15.1485Z" fill="var(--fill)"/></g><defs><clipPath id="id_21"><rect width="16" height="16" fill="white"/></clipPath></defs></symbol>
  <symbol xmlns="http://www.w3.org/2000/svg" id="icon-edit" viewBox="0 0 16 16" fill="none"><path fill-rule="evenodd" clip-rule="evenodd" d="M11.3068 1.71387C11.6973 1.32334 12.3305 1.32334 12.721 1.71387L14.1174 3.11021C14.5079 3.50073 14.5079 4.1339 14.1174 4.52442L7.77325 10.8685L4.68434 13.9724C4.5905 14.0667 4.46296 14.1197 4.32993 14.1197H2.71262C2.16033 14.1197 1.71262 13.672 1.71262 13.1197V11.502C1.71262 11.3692 1.76546 11.2419 1.85949 11.1481L5.10194 7.91351C5.10855 7.90692 5.11584 7.90145 5.1236 7.89709L11.3068 1.71387ZM6.13054 10.818L5.01137 9.69886L2.91262 11.7925L2.91262 12.9197H4.03899L6.13054 10.818ZM12.4473 2.6973C12.252 2.50204 11.9355 2.50204 11.7402 2.6973L11.6383 2.81018C11.443 3.00544 11.443 3.32203 11.6383 3.51729L12.3398 4.21875C12.535 4.41401 12.8516 4.41401 13.0469 4.21875L13.1488 4.10587C13.344 3.91061 13.344 3.59403 13.1488 3.39877L12.4473 2.6973Z" fill="var(--fill)"/></symbol>
  <symbol xmlns="http://www.w3.org/2000/svg" id="icon-bank" viewBox="0 0 24 24"><path d="M11.5,1L2,6V8H21V6M16,10V17H19V10M2,22H21V19H2M10,10V17H13V10M4,10V17H7V10H4Z" fill="var(--fill)"/></symbol>
  <symbol xmlns="http://www.w3.org/2000/svg" id="icon-cash" viewBox="-2 -2 24 24" ><path d="M9 13v-2a3 3 0 1 1 0-6V4a1 1 0 1 1 2 0v1h.022A2.978 2.978 0 0 1 14 7.978a1 1 0 0 1-2 0A.978.978 0 0 0 11.022 7H11v2a3 3 0 0 1 0 6v1a1 1 0 0 1-2 0v-1h-.051A2.949 2.949 0 0 1 6 12.051a1 1 0 1 1 2 0 .95.95 0 0 0 .949.949H9zm2 0a1 1 0 0 0 0-2v2zM9 7a1 1 0 1 0 0 2V7zm1 13C4.477 20 0 15.523 0 10S4.477 0 10 0s10 4.477 10 10-4.477 10-10 10zm0-2a8 8 0 1 0 0-16 8 8 0 0 0 0 16z" fill="var(--fill)"></path></symbol>
  <symbol xmlns="http://www.w3.org/2000/svg" id="icon-flask" viewBox="-5 -2 24 24"><path fill="var(--fill)" d="M6 2v5.938l-1.142.542a5 5 0 1 0 4.284 0L8 7.938V2H6zM4 6.674V0h6v6.674a7 7 0 1 1-6 0zM3.535 11h6.93a4 4 0 1 1-6.93 0zM4 0h6a1 1 0 0 1 0 2H4a1 1 0 1 1 0-2z"></path></symbol>
  <symbol xmlns="http://www.w3.org/2000/svg" id="icon-glass" viewBox="-5 -2 24 24"><path fill="var(--fill)" d="M2 5a5 5 0 1 0 9-3H3c-.643.854-1 1.897-1 3zm4 13v-6.07A7.002 7.002 0 0 1 2.101 0h9.798A7.002 7.002 0 0 1 8 11.93V18h2a1 1 0 0 1 0 2H4a1 1 0 0 1 0-2h2z"></path></symbol>
  <symbol xmlns="http://www.w3.org/2000/svg" id="icon-hammer" viewBox="-1.5 -1.5 24 24"><path fill="var(--fill)" d="M2.536 8.9l2.828 2.828 6.364-6.364-2.829-2.828-6.363 6.363zm12.727 5.656l-4.95-4.95-.706.708 4.95 4.95.706-.708zm1.415 1.415l-.707.707 1.767 1.767a.5.5 0 0 0 .707-.707l-1.767-1.767zM6.01 2.596L7.485 1.12a2 2 0 0 1 2.829 0l2.828 2.829a2 2 0 0 1 0 2.828l-1.414 1.414 8.132 8.132a2.5 2.5 0 1 1-3.536 3.536l-8.132-8.132-1.414 1.414a2 2 0 0 1-2.828 0l-2.83-2.827a2 2 0 0 1 0-2.829l1.475-1.474a1.5 1.5 0 0 1 .293-1.708L4.303 2.89a1.5 1.5 0 0 1 1.708-.293z"></path></symbol>
  <symbol xmlns="http://www.w3.org/2000/svg" id="icon-headphones" viewBox="-2 -2.5 24 24"><path fill="var(--fill)" d="M2 16.09a1 1 0 1 1-2 0V10C0 4.477 4.477 0 10 0s10 4.477 10 10v3.086a1 1 0 1 1-2 0V10a8 8 0 1 0-16 0v6.09zM2 10h2a2 2 0 0 1 2 2v5a2 2 0 0 1-2 2H2a2 2 0 0 1-2-2v-5a2 2 0 0 1 2-2zm0 2v5h2v-5H2zm14-2h2a2 2 0 0 1 2 2v5a2 2 0 0 1-2 2h-2a2 2 0 0 1-2-2v-5a2 2 0 0 1 2-2zm0 2v5h2v-5h-2z"></path></symbol>
  <symbol xmlns="http://www.w3.org/2000/svg" id="icon-hearth" viewBox="-2 -4 24 24"><path fill="var(--fill)" d="M3.636 7.208L10 13.572l6.364-6.364a3 3 0 1 0-4.243-4.243L10 5.086l-2.121-2.12a3 3 0 0 0-4.243 4.242zM9.293 1.55l.707.707.707-.707a5 5 0 1 1 7.071 7.071l-7.07 7.071a1 1 0 0 1-1.415 0l-7.071-7.07a5 5 0 1 1 7.07-7.071z"></path></symbol>
  <symbol xmlns="http://www.w3.org/2000/svg" id="icon-key" viewBox="-1 -1 24 24"><path fill="var(--fill)" d="M8.612 16.337l3.746-3.747 1.027.183a5 5 0 1 0-4.039-4.039l.184 1.028-6.994 6.994.177 2.651 2.651.177 1.833-1.833-.707-.707a1 1 0 0 1 1.415-1.414l.707.707zm.707-13.435a7 7 0 1 1 3.715 11.84L6.137 21.64l-4.43-.295a1 1 0 0 1-.932-.932l-.295-4.43 6.898-6.898a6.992 6.992 0 0 1 1.94-6.183zm4.242 5.656A2 2 0 1 1 16.39 5.73a2 2 0 0 1-2.829 2.828z"></path></symbol>
  <symbol xmlns="http://www.w3.org/2000/svg" id="icon-chip" viewBox="-2 -2 24 24"><path fill="var(--fill)" d="M6 3h8a3 3 0 0 1 3 3v8a3 3 0 0 1-3 3H6a3 3 0 0 1-3-3V6a3 3 0 0 1 3-3zm0 2a1 1 0 0 0-1 1v8a1 1 0 0 0 1 1h8a1 1 0 0 0 1-1V6a1 1 0 0 0-1-1H6zm2 2h4a1 1 0 0 1 1 1v4a1 1 0 0 1-1 1H8a1 1 0 0 1-1-1V8a1 1 0 0 1 1-1zm1 2v2h2V9H9zM6 0a1 1 0 0 1 1 1v2a1 1 0 1 1-2 0V1a1 1 0 0 1 1-1zM1 5h2a1 1 0 1 1 0 2H1a1 1 0 1 1 0-2zm16 0h2a1 1 0 0 1 0 2h-2a1 1 0 0 1 0-2zM1 9h2a1 1 0 1 1 0 2H1a1 1 0 0 1 0-2zm16 0h2a1 1 0 0 1 0 2h-2a1 1 0 0 1 0-2zM1 13h2a1 1 0 0 1 0 2H1a1 1 0 0 1 0-2zm16 0h2a1 1 0 0 1 0 2h-2a1 1 0 0 1 0-2zM6 16a1 1 0 0 1 1 1v2a1 1 0 0 1-2 0v-2a1 1 0 0 1 1-1zm8-16a1 1 0 0 1 1 1v2a1 1 0 0 1-2 0V1a1 1 0 0 1 1-1zm0 16a1 1 0 0 1 1 1v2a1 1 0 0 1-2 0v-2a1 1 0 0 1 1-1zM10 0a1 1 0 0 1 1 1v2a1 1 0 0 1-2 0V1a1 1 0 0 1 1-1zm0 16a1 1 0 0 1 1 1v2a1 1 0 0 1-2 0v-2a1 1 0 0 1 1-1z"></path></symbol>
  <symbol xmlns="http://www.w3.org/2000/svg" id="icon-movie" viewBox="-2 -2 24 24"><path fill="var(--fill)" d="M6 15v3h8v-7H6v4zm-2-2v-2H2V9h2V7H2v6h2zm0 2H2v1a2 2 0 0 0 2 2v-3zm14-2V7h-2v2h2v2h-2v2h2zm0 2h-2v3a2 2 0 0 0 2-2v-1zm-4-8V2H6v7h8V7zm4-2V4a2 2 0 0 0-2-2v3h2zM4 5V2a2 2 0 0 0-2 2v1h2zm0-5h12a4 4 0 0 1 4 4v12a4 4 0 0 1-4 4H4a4 4 0 0 1-4-4V4a4 4 0 0 1 4-4z"></path></symbol>
  <symbol xmlns="http://www.w3.org/2000/svg" id="icon-picture" viewBox="-2 -4 24 24"><path fill="var(--fill)" d="M18 8.503V3a1 1 0 0 0-1-1H3a1 1 0 0 0-1 1v10a1 1 0 0 0 1 1h3.504l4.39-7.322a3 3 0 0 1 4.69-.582L18 8.503zm0 2.823l-3.828-3.814a1 1 0 0 0-1.563.195L8.836 14H17a1 1 0 0 0 1-1v-1.674zM3 0h14a3 3 0 0 1 3 3v10a3 3 0 0 1-3 3H3a3 3 0 0 1-3-3V3a3 3 0 0 1 3-3zm3 9a3 3 0 1 1 0-6 3 3 0 0 1 0 6zm0-2a1 1 0 1 0 0-2 1 1 0 0 0 0 2z"></path></symbol>
  <symbol xmlns="http://www.w3.org/2000/svg" id="icon-pizza-slice" viewBox="-2 -2 24 24"><path fill="var(--fill)" d="M4.258 6.884L9.97 16.977l5.618-9.83c-1.33-.105-2.712-.453-4.242-.992-.395-.14-.598-.171-.78-.148-.154.02-1.723.569-2.643.802-1.161.294-2.384.317-3.665.075zm-1.41-2.49c1.702.67 3.224.82 4.584.476.738-.187 2.478-.796 2.883-.847.529-.067 1.03.01 1.696.245 1.774.626 3.296.956 4.703.909l.887-1.552A18.559 18.559 0 0 0 9.966 2a18.56 18.56 0 0 0-7.569 1.596l.451.797zM.542 2.268A20.508 20.508 0 0 1 9.966 0c3.362 0 6.606.8 9.496 2.306a1 1 0 0 1 .406 1.383l-9.034 15.807a1 1 0 0 1-1.738-.004L.13 3.65a1 1 0 0 1 .412-1.38zM8 10a1 1 0 1 1 0-2 1 1 0 0 1 0 2zm3 3a1 1 0 1 1 0-2 1 1 0 0 1 0 2z"></path></symbol>
  <symbol xmlns="http://www.w3.org/2000/svg" id="icon-shopping-cart" viewBox="-3 -4 24 24"><path fill="var(--fill)" d="M7 16a2 2 0 1 1 0-4 2 2 0 0 1 0 4zm7 0a2 2 0 1 1 0-4 2 2 0 0 1 0 4zM.962 1.923A.962.962 0 0 1 .962 0h1.151c.902 0 1.682.626 1.878 1.506l1.253 5.642c.196.88.976 1.506 1.878 1.506h7.512l1.442-5.77H6.731a.962.962 0 0 1 0-1.922h9.345a1.923 1.923 0 0 1 1.866 2.39L16.5 9.12a1.923 1.923 0 0 1-1.866 1.457H7.122a3.846 3.846 0 0 1-3.755-3.012L2.113 1.923H.962z"></path></symbol>
  <symbol xmlns="http://www.w3.org/2000/svg" id="icon-skull" viewBox="-2 -2 24 24"><path fill="var(--fill)" d="M11 18h2a1 1 0 0 0 1-1v-2.07l1.065-.563A5.498 5.498 0 0 0 18 9.5v-2A5.5 5.5 0 0 0 12.5 2h-5A5.5 5.5 0 0 0 2 7.5v2a5.498 5.498 0 0 0 2.935 4.867L6 14.93V17a1 1 0 0 0 1 1h2v-2a1 1 0 0 1 2 0v2zm5-1a3 3 0 0 1-3 3H7a3 3 0 0 1-3-3v-.865A7.499 7.499 0 0 1 0 9.5v-2A7.5 7.5 0 0 1 7.5 0h5A7.5 7.5 0 0 1 20 7.5v2a7.499 7.499 0 0 1-4 6.635V17zM6 11a2 2 0 1 1 0-4 2 2 0 0 1 0 4zm8 0a2 2 0 1 1 0-4 2 2 0 0 1 0 4z"></path></symbol>
  <symbol xmlns="http://www.w3.org/2000/svg" id="icon-universe"  viewBox="-3 -3 24 24"><path fill="var(--fill)" d="M2.079 15.921c.815.816 5.102-.95 8.997-4.845 3.895-3.895 5.66-8.182 4.845-8.997-.815-.816-5.102.95-8.997 4.845-3.895 3.895-5.66 8.182-4.845 8.997zM.694 17.306c-1.91-1.912.258-7.18 4.845-11.767S15.394-1.217 17.306.694c1.91 1.912-.258 7.18-4.845 11.767S2.606 19.217.694 17.306z"></path><path d="M6.924 11.076c3.895 3.895 8.182 5.66 8.997 4.845.816-.815-.95-5.102-4.845-8.997-3.895-3.895-8.182-5.66-8.997-4.845-.816.815.95 5.102 4.845 8.997zm-1.385 1.385C.952 7.874-1.217 2.606.694.694c1.912-1.91 7.18.258 11.767 4.845s6.756 9.855 4.845 11.767c-1.912 1.91-7.18-.258-11.767-4.845z"></path><circle cx="9" cy="9" r="2"></circle></symbol>
  <symbol xmlns="http://www.w3.org/2000/svg" id="icon-video-camera" viewBox="-2 -2.5 24 24"><path fill="var(--fill)" d="M4 11a2 2 0 0 0-2 2v2a2 2 0 0 0 2 2h6a2 2 0 0 0 2-2v-2a2 2 0 0 0-2-2H4zm9.698.473l1.888-1.887A2 2 0 0 1 17 9h.586a2 2 0 0 1 2 2v6a2 2 0 0 1-2 2H17a2 2 0 0 1-1.414-.586l-1.888-1.887A4.001 4.001 0 0 1 10 19H4a4 4 0 0 1-4-4v-2a4 4 0 0 1 4-4h6a4.001 4.001 0 0 1 3.698 2.473zM17 17h.586v-6H17l-3 3 3 3zM9.259 2.379a4.5 4.5 0 1 1-.386 5.785 5 5 0 1 1 .386-5.785zM5 16a1 1 0 1 1 0-2 1 1 0 0 1 0 2zm0-8a3 3 0 1 0 0-6 3 3 0 0 0 0 6zm7.5 0a2.5 2.5 0 1 0 0-5 2.5 2.5 0 0 0 0 5z"></path></symbol>
  <symbol xmlns="http://www.w3.org/2000/svg" id="icon-basketball" viewBox="-2 -2 24 24"><path fill="var(--fill)" d="M10 18a8 8 0 1 0 0-16 8 8 0 0 0 0 16zm0 2C4.477 20 0 15.523 0 10S4.477 0 10 0s10 4.477 10 10-4.477 10-10 10z"></path><path d="M5 10c0-1.71-.538-3.329-1.5-4.666A7.967 7.967 0 0 0 2 10c0 1.71.538 3.329 1.5 4.666A7.967 7.967 0 0 0 5 10zm-5 0a9.978 9.978 0 0 1 3.5-7.6A9.978 9.978 0 0 1 7 10a9.978 9.978 0 0 1-3.5 7.6A9.978 9.978 0 0 1 0 10zm15 0c0 1.71.538 3.329 1.5 4.666A7.967 7.967 0 0 0 18 10c0-1.71-.538-3.329-1.5-4.666A7.967 7.967 0 0 0 15 10zm5 0a9.978 9.978 0 0 1-3.5 7.6A9.978 9.978 0 0 1 13 10a9.978 9.978 0 0 1 3.5-7.6A9.978 9.978 0 0 1 20 10z"></path><path d="M11 9h8v2h-8v8H9v-8H1V9h8V1h2v8z"></path></symbol>
  <symbol xmlns="http://www.w3.org/2000/svg" id="icon-bookmark" viewBox="-5 -2 24 24"><path fill="var(--fill)" d="M3 2a1 1 0 0 0-1 1v15l2.978-2.717a3 3 0 0 1 4.044 0L12 18V3a1 1 0 0 0-1-1H3zm0-2h8a3 3 0 0 1 3 3v15a2 2 0 0 1-3.348 1.477L7.674 16.76a1 1 0 0 0-1.348 0l-2.978 2.717A2 2 0 0 1 0 18V3a3 3 0 0 1 3-3z"></path></symbol>
  <symbol xmlns="http://www.w3.org/2000/svg" id="icon-bug"  viewBox="-2 -2 24 24"><path fill="var(--fill)" d="M7 9a1 1 0 0 0-1 1v4a4 4 0 1 0 8 0v-4a1 1 0 0 0-1-1H7zm8.236-1h1.647V5a1 1 0 1 1 2 0v3a2 2 0 0 1-2 2H16v1h3a1 1 0 0 1 0 2h-3v1h.883a2 2 0 0 1 2 2v3a1 1 0 0 1-2 0v-3h-1.224A6.002 6.002 0 0 1 4.34 16H3v3a1 1 0 0 1-2 0v-3a2 2 0 0 1 2-2h1v-1H1a1 1 0 0 1 0-2h3v-1H3a2 2 0 0 1-2-2V5a1 1 0 1 1 2 0v3h1.764A3 3 0 0 1 6 7.17V5a2 2 0 0 1 2-2h.737c-.343-.598-.988-1-1.726-1H5a1 1 0 1 1 0-2h2.01A3.98 3.98 0 0 1 10 1.348 3.98 3.98 0 0 1 12.99 0H15a1 1 0 0 1 0 2h-2.01c-.74 0-1.384.402-1.727 1H12a2 2 0 0 1 2 2v2.17a3 3 0 0 1 1.236.83zM8 7h4V5H8v2z"></path></symbol>
  <symbol xmlns="http://www.w3.org/2000/svg" id="icon-castle" viewBox="-2 -2.5 24 24"><path fill="var(--fill)" d="M10 8v9h6V8h-6zm8 11H0v-7a2 2 0 0 1 2-2h2a2 2 0 0 1 2 2h2V8a2 2 0 0 1-2-2V2a2 2 0 0 1 2-2h2a2 2 0 0 1 2 2h2a2 2 0 0 1 2-2h2a2 2 0 0 1 2 2v4a2 2 0 0 1-2 2v11zM8 17v-3H4v-2H2v5h6zM8 2v4h10V2h-2v2h-6V2H8zm5 11a2 2 0 0 1 2 2v3h-4v-3a2 2 0 0 1 2-2zm-1-4h2a1 1 0 0 1 0 2h-2a1 1 0 0 1 0-2z"></path></symbol>
  <symbol xmlns="http://www.w3.org/2000/svg" id="icon-cog" viewBox="-2 -2 24 24"><path fill="var(--fill)" d="M20 8.163A2.106 2.106 0 0 0 18.926 10c0 .789.433 1.476 1.074 1.837l-.717 2.406a2.105 2.105 0 0 0-2.218 3.058l-2.062 1.602A2.104 2.104 0 0 0 11.633 20l-3.29-.008a2.104 2.104 0 0 0-3.362-1.094l-2.06-1.615A2.105 2.105 0 0 0 .715 14.24L0 11.825A2.106 2.106 0 0 0 1.051 10C1.051 9.22.63 8.54 0 8.175L.715 5.76a2.105 2.105 0 0 0 2.207-3.043L4.98 1.102A2.104 2.104 0 0 0 8.342.008L11.634 0a2.104 2.104 0 0 0 3.37 1.097l2.06 1.603a2.105 2.105 0 0 0 2.218 3.058L20 8.162zM14.823 3.68c0-.063.002-.125.005-.188l-.08-.062a4.103 4.103 0 0 1-4.308-1.428l-.904.002a4.1 4.1 0 0 1-4.29 1.43l-.095.076A4.108 4.108 0 0 1 2.279 7.6a4.1 4.1 0 0 1 .772 2.399c0 .882-.28 1.715-.772 2.4a4.108 4.108 0 0 1 2.872 4.09l.096.075a4.104 4.104 0 0 1 4.289 1.43l.904.002a4.1 4.1 0 0 1 4.307-1.428l.08-.062A4.108 4.108 0 0 1 17.7 12.4a4.102 4.102 0 0 1-.773-2.4c0-.882.281-1.716.773-2.4a4.108 4.108 0 0 1-2.876-3.919zM10 14a4 4 0 1 1 0-8 4 4 0 0 1 0 8zm0-2a2 2 0 1 0 0-4 2 2 0 0 0 0 4z"></path></symbol>
  <symbol xmlns="http://www.w3.org/2000/svg" id="icon-dice" viewBox="-2 -2 24 24"><path fill="var(--fill)" d="M16,0 C18.209139,0 20,1.790861 20,4 L20,16 C20,18.209139 18.209139,20 16,20 L4,20 C1.790861,20 0,18.209139 0,16 L0,4 C0,1.790861 1.790861,0 4,0 L16,0 Z M16,2 L4,2 C2.9456382,2 2.08183488,2.81587779 2.00548574,3.85073766 L2,4 L2,16 C2,17.0543618 2.81587779,17.9181651 3.85073766,17.9945143 L4,18 L16,18 C17.0543618,18 17.9181651,17.1841222 17.9945143,16.1492623 L18,16 L18,4 C18,2.9456382 17.1841222,2.08183488 16.1492623,2.00548574 L16,2 Z M15,13 C16.1045695,13 17,13.8954305 17,15 C17,16.1045695 16.1045695,17 15,17 C13.8954305,17 13,16.1045695 13,15 C13,13.8954305 13.8954305,13 15,13 Z M10,8 C11.1045695,8 12,8.8954305 12,10 C12,11.1045695 11.1045695,12 10,12 C8.8954305,12 8,11.1045695 8,10 C8,8.8954305 8.8954305,8 10,8 Z M5,3 C6.1045695,3 7,3.8954305 7,5 C7,6.1045695 6.1045695,7 5,7 C3.8954305,7 3,6.1045695 3,5 C3,3.8954305 3.8954305,3 5,3 Z"></path></symbol>
  <symbol xmlns="http://www.w3.org/2000/svg" id="icon-gamepad" viewBox="0 -4 24 24"><path fill="var(--fill)" d="M7 5h1a1 1 0 1 1 0 2H7v1a1 1 0 1 1-2 0V7H4a1 1 0 1 1 0-2h1V4a1 1 0 1 1 2 0v1zm2.318-4h5.364A6 6 0 0 1 24 6c0 3.314-2.686 10-6 10-1.976 0-3.729-2.378-4.822-5h-2.356C9.73 13.622 7.976 16 6 16 2.686 16 0 9.314 0 6a6 6 0 0 1 9.318-5zm5.968 2H8.714l-.504-.335A4 4 0 0 0 2 6c0 3.117 2.542 8 4 8 .722 0 2.004-1.438 2.976-3.77L9.49 9h5.022l.513 1.23C15.996 12.562 17.278 14 18 14c1.458 0 4-4.883 4-8a4 4 0 0 0-6.21-3.335L15.286 3zM18 5a1 1 0 1 1 0-2 1 1 0 0 1 0 2zm-2 2a1 1 0 1 1 0-2 1 1 0 0 1 0 2zm4 0a1 1 0 1 1 0-2 1 1 0 0 1 0 2zm-2 2a1 1 0 1 1 0-2 1 1 0 0 1 0 2z"></path></symbol>
  <symbol xmlns="http://www.w3.org/2000/svg" id="icon-footbal" viewBox="-6 -2 24 24"><path fill="var(--fill)" d="M2.835 14h6.33A10.33 10.33 0 0 0 10 10c0-1.37-.302-2.741-.835-4h-6.33A10.33 10.33 0 0 0 2 10c0 1.37.302 2.741.835 4zm1.106 2c.484.688 1.01 1.254 1.499 1.63.343.265.58.37.56.37-.02 0 .217-.105.56-.37.489-.376 1.015-.942 1.499-1.63H3.94zM7 11h1a1 1 0 0 1 0 2H4a1 1 0 0 1 0-2h1V9H4a1 1 0 1 1 0-2h4a1 1 0 1 1 0 2H7v2zM3.941 4H8.06c-.484-.688-1.01-1.254-1.499-1.63C6.217 2.105 5.98 2 6 2c.02 0-.217.105-.56.37-.489.376-1.015.942-1.499 1.63zM6 20c-2 0-6-4.477-6-10S4 0 6 0s6 4.477 6 10-4 10-6 10z"></path></symbol>
  <symbol xmlns="http://www.w3.org/2000/svg" id="icon-leaf" viewBox="-5 -2 24 24"><path fill="var(--fill)" d="M9 14v-2.298l.856-.597a5 5 0 1 0-5.712 0l.856.597V14h1V6a1 1 0 1 1 2 0v8h1zm0 2H5v2h4v-2zM0 7a7 7 0 1 1 11 5.745V18a2 2 0 0 1-2 2H5a2 2 0 0 1-2-2v-5.255A6.992 6.992 0 0 1 0 7z"></path></symbol>
  <symbol xmlns="http://www.w3.org/2000/svg" id="icon-medal" viewBox="-4 -1 24 24"><path fill="var(--fill)" d="M4 14.517l-.612-1.258a1 1 0 0 0-.43-.447l-2-1.06a1 1 0 0 1-.485-1.181l.71-2.273a1 1 0 0 0 0-.596l-.71-2.273a1 1 0 0 1 .486-1.182l1.999-1.06a1 1 0 0 0 .43-.446L4.393.674A1 1 0 0 1 5.615.165l2.062.703a1 1 0 0 0 .646 0l2.062-.703a1 1 0 0 1 1.222.51l1.005 2.066a1 1 0 0 0 .43.447l2 1.06a1 1 0 0 1 .485 1.181l-.71 2.273a1 1 0 0 0 0 .596l.71 2.273a1 1 0 0 1-.486 1.182l-1.999 1.06a1 1 0 0 0-.43.446L12 14.517v6.879l-4-1.358-4 1.358v-6.88zm2 1.187v2.9l2-.679 2 .68v-2.901l-1.677-.572a1 1 0 0 0-.646 0L6 15.704zm4.813-3.32a3 3 0 0 1 1.293-1.339l1.264-.67-.462-1.48a3 3 0 0 1 0-1.79l.462-1.48-1.264-.67a3 3 0 0 1-1.293-1.34l-.619-1.272-1.226.418a3 3 0 0 1-1.936 0l-1.226-.418-.619 1.273a3 3 0 0 1-1.293 1.339l-1.264.67.462 1.48a3 3 0 0 1 0 1.79l-.462 1.48 1.264.67a3 3 0 0 1 1.293 1.34l.619 1.272 1.226-.418a3 3 0 0 1 1.936 0l1.226.418.619-1.273zM8 5a1 1 0 0 1 1 1v4a1 1 0 0 1-2 0V6a1 1 0 0 1 1-1z"></path></symbol>
  <symbol xmlns="http://www.w3.org/2000/svg" id="icon-mountain" viewBox="-2 -3 24 24"><path fill="var(--fill)" d="M14.846 9.334l-3.985-6.762a1 1 0 0 0-1.723 0L7.11 6.015c.202 1.979.943 2.783 2.387 2.783 2.005 0 3.816.176 5.35.536zm1.555 2.637c-1.547-.767-3.977-1.173-6.905-1.173-1.819 0-3.11-.832-3.813-2.364l-3.57 6.058A1 1 0 0 0 2.975 16h14.05a1 1 0 0 0 .861-1.508l-1.485-2.52zM12.584 1.556l7.025 11.92A3 3 0 0 1 17.025 18H2.975A3 3 0 0 1 .39 13.477l7.025-11.92a3 3 0 0 1 5.17 0z"></path></symbol>
  <symbol xmlns="http://www.w3.org/2000/svg" id="icon-music" viewBox="-7 -2 24 24"><path fill="var(--fill)" d="M7.954 12.304V1a1 1 0 0 1 1-1h.028a1 1 0 0 1 1 1v14.065c.197 1.969-1.42 3.99-3.874 4.693-2.69.772-5.368-.333-5.98-2.468-.612-2.135 1.073-4.491 3.764-5.263 1.47-.421 2.935-.283 4.062.277zm-2.4 5.521c1.698-.487 2.645-1.81 2.37-2.77-.276-.961-1.78-1.582-3.478-1.095-1.698.487-2.645 1.81-2.37 2.771.276.96 1.78 1.581 3.478 1.094z"></path></symbol>
  <symbol xmlns="http://www.w3.org/2000/svg" id="icon-income" viewBox="-5 -5 24 24"><path fill="var(--fill)" d="M7.071 5.314l4.95-4.95a1 1 0 1 1 1.414 1.414L7.778 7.435a1 1 0 0 1-1.414 0L.707 1.778A1 1 0 1 1 2.121.364l4.95 4.95zm0 6l4.95-4.95a1 1 0 1 1 1.414 1.414l-5.657 5.657a1 1 0 0 1-1.414 0L.707 7.778a1 1 0 1 1 1.414-1.414l4.95 4.95z"></path></symbol>
  <symbol xmlns="http://www.w3.org/2000/svg" id="icon-withdraw" viewBox="-5 -4.5 24 24"><path fill="var(--fill)" d="M7.071 2.828l-4.95 4.95A1 1 0 0 1 .707 6.364L6.364.707a1 1 0 0 1 1.414 0l5.657 5.657a1 1 0 0 1-1.414 1.414l-4.95-4.95zm0 6l-4.95 4.95a1 1 0 1 1-1.414-1.414l5.657-5.657a1 1 0 0 1 1.414 0l5.657 5.657a1 1 0 0 1-1.414 1.414l-4.95-4.95z"></path></symbol>
  <symbol xmlns="http://www.w3.org/2000/svg" id="icon-transfer" viewBox="-5 -5 24 24"><path fill="var(--fill)" d="M11.314 7.071l-4.95-4.95A1 1 0 0 1 7.778.707l5.657 5.657a1 1 0 0 1 0 1.414l-5.657 5.657a1 1 0 0 1-1.414-1.414l4.95-4.95zm-6 0l-4.95-4.95A1 1 0 1 1 1.778.707l5.657 5.657a1 1 0 0 1 0 1.414l-5.657 5.657a1 1 0 0 1-1.414-1.414l4.95-4.95z"></path></symbol>
  <symbol xmlns="http://www.w3.org/2000/svg" id="icon-trash" viewBox="-4 -2 24 24"><path fill="var(--fill)" d="M14.833 5l-.728 13.11A2 2 0 0 1 12.108 20H3.892a2 2 0 0 1-1.997-1.89L1.167 5H1a1 1 0 0 1-1-1V1a1 1 0 0 1 1-1h14a1 1 0 0 1 1 1v3a1 1 0 0 1-1 1h-.167zM12.83 5H3.17l.722 13h8.216l.722-13zM2 2v1h12V2H2zm4 5a1 1 0 0 1 1 1v7a1 1 0 0 1-2 0V8a1 1 0 0 1 1-1zm4 0a1 1 0 0 1 1 1v7a1 1 0 0 1-2 0V8a1 1 0 0 1 1-1z"></path></symbol>
  <symbol xmlns="http://www.w3.org/2000/svg" id="icon-restore" viewBox="-1.5 -2.5 24 24"><path fill="var(--fill)" d="M4.859 5.308l1.594-.488a1 1 0 0 1 .585 1.913l-3.825 1.17a1 1 0 0 1-1.249-.665L.794 3.413a1 1 0 1 1 1.913-.585l.44 1.441C5.555.56 10.332-1.035 14.573.703a9.381 9.381 0 0 1 5.38 5.831 1 1 0 1 1-1.905.608A7.381 7.381 0 0 0 4.86 5.308zm12.327 8.195l-1.775.443a1 1 0 1 1-.484-1.94l3.643-.909a.997.997 0 0 1 .61-.08 1 1 0 0 1 .84.75l.968 3.88a1 1 0 0 1-1.94.484l-.33-1.322a9.381 9.381 0 0 1-16.384-1.796l-.26-.634a1 1 0 1 1 1.851-.758l.26.633a7.381 7.381 0 0 0 13.001 1.25z"></path></symbol>
</svg>